<?xml version="1.0" encoding="UTF-8"?>
<svg width="328px" height="212px" viewBox="0 0 328 212" version="1.1" xmlns="http://www.w3.org/2000/svg" xmlns:xlink="http://www.w3.org/1999/xlink">
    <!-- Generator: Sketch 51.3 (57544) - http://www.bohemiancoding.com/sketch -->
    <title>logo_everis_triangulo</title>
    <desc>Created with Sketch.</desc>
    <defs></defs>
    <g id="Page-1" stroke="none" stroke-width="1" fill="none" fill-rule="evenodd">
        <g id="logo_everis_triangulo" fill-rule="nonzero">
            <polygon id="Shape" fill="#FFFFFF" points="0 0 328 212 328 0"></polygon>
            <path d="M277.62,80.68 C248.39,57.93 226.07,87.05 220.62,68.86 C218.27,60.94 225.18,33.42 255.07,32.66 C283,31.93 300,19.15 301.53,34 C303.09,48.84 298.28,96.77 277.62,80.68 Z" id="Shape" fill="#9BAE05"></path>
            <path d="M241.25,47.26 C241.792074,48.8953585 243.359365,49.9675001 245.08,49.88 C245.747642,49.8520523 246.396109,49.648544 246.96,49.29 C247.535059,48.9477726 248.048816,48.5117551 248.48,48 L248.57,47.89 L249.15,48.29 L249.06,48.42 C248.470803,49.2830412 247.716237,50.0206127 246.84,50.59 C245.943965,51.1636956 244.903929,51.4722394 243.84,51.48 C242.856945,51.5058699 241.887583,51.2452887 241.05,50.73 C240.308129,50.2400999 239.724494,49.5452968 239.37,48.73 C238.987498,47.8326907 238.796754,46.8653441 238.81,45.89 C238.810795,44.8703725 239.065089,43.8669405 239.55,42.97 C240.020554,42.1011369 240.709997,41.3703265 241.55,40.85 C242.4064,40.3112439 243.398235,40.0268717 244.41,40.03 C245.648063,39.9733884 246.854059,40.4333327 247.74,41.3 C248.559493,42.2172734 249.002368,43.4101796 248.98,44.64 L248.98,44.81 L240.92,44.81 C240.905002,45.6440698 241.040502,46.4740111 241.32,47.26 L241.25,47.26 Z M246.47,43.89 C246.447196,43.1852829 246.247762,42.4975794 245.89,41.89 C245.465473,41.2755311 244.744095,40.9358346 244,41 C243.171521,40.9974953 242.378888,41.337712 241.81,41.94 C241.297979,42.4915522 240.975631,43.1923081 240.89,43.94 L246.47,43.89 Z" id="Shape" fill="#FFFFFF"></path>
            <path d="M260.65,41 L260.51,41 C260.241807,41.0416654 259.987811,41.1480692 259.77,41.31 C259.485163,41.589863 259.26946,41.9322496 259.14,42.31 L256,51.27 L253.92,51.27 L250.92,43.11 C250.760048,42.5831976 250.502212,42.0912732 250.16,41.66 C249.846916,41.2781912 249.392139,41.0399747 248.9,41 L248.75,41 L248.75,40.23 L253.94,40.23 L253.94,41 L253.79,41 C253.47665,40.988579 253.165937,41.0610786 252.89,41.21 C252.743561,41.3153933 252.663705,41.4903153 252.68,41.67 C252.686036,41.8270644 252.716397,41.9822423 252.77,42.13 C252.83,42.32 254.9,47.98 255.47,49.57 C256.03,48 258.02,42.49 258.08,42.27 C258.145712,42.0595674 258.179422,41.8404532 258.18,41.62 C258.17982,41.4420719 258.07918,41.2794997 257.92,41.2 C257.635114,41.056796 257.318628,40.9879948 257,41 L256.85,41 L256.85,40.22 L260.62,40.22 L260.62,41 L260.65,41 Z" id="Shape" fill="#FFFFFF"></path>
            <path d="M263.07,47.26 C263.612074,48.8953585 265.179365,49.9675001 266.9,49.88 C267.567642,49.8520523 268.216109,49.648544 268.78,49.29 C269.355059,48.9477726 269.868816,48.5117551 270.3,48 L270.39,47.89 L270.97,48.29 L270.88,48.42 C270.290803,49.2830412 269.536237,50.0206127 268.66,50.59 C267.764194,51.1641968 266.72401,51.4727845 265.66,51.48 C264.676945,51.5058699 263.707583,51.2452887 262.87,50.73 C262.128129,50.2400999 261.544494,49.5452968 261.19,48.73 C260.805786,47.8332191 260.614969,46.8655053 260.63,45.89 C260.626037,44.8710222 260.876984,43.8672332 261.36,42.97 C261.830554,42.1011369 262.519997,41.3703265 263.36,40.85 C264.2164,40.3112439 265.208235,40.0268717 266.22,40.03 C267.458063,39.9733884 268.664059,40.4333327 269.55,41.3 C270.367777,42.2183061 270.810394,43.4105165 270.79,44.64 L270.79,44.81 L262.73,44.81 C262.715002,45.6440698 262.850502,46.4740111 263.13,47.26 L263.07,47.26 Z M268.29,43.89 C268.265095,43.1856178 268.065808,42.4984205 267.71,41.89 C267.289679,41.2868531 266.583379,40.9488922 265.85,41 C265.021521,40.9974953 264.228888,41.337712 263.66,41.94 C263.150436,42.4920938 262.831468,43.1931228 262.75,43.94 L268.29,43.89 Z" id="Shape" fill="#FFFFFF"></path>
            <path d="M276.94,40.76 C277.641792,40.3075436 278.455199,40.0583293 279.29,40.04 C279.527035,40.0541478 279.761787,40.094391 279.99,40.16 C280.215052,40.2172049 280.435636,40.2907329 280.65,40.38 L280.75,40.38 L280.75,42.63 L279.2,42.63 L279.2,42.5 C279.148142,42.22547 279.050084,41.9617277 278.91,41.72 C278.772044,41.4763239 278.509832,41.3297934 278.23,41.34 C277.643823,41.3750421 277.08223,41.5878198 276.62,41.95 C276.146032,42.3003249 275.698183,42.6846731 275.28,43.1 L275.28,49.37 C275.259167,49.6097691 275.300497,49.85086 275.4,50.07 C275.531758,50.2524628 275.735909,50.3691202 275.96,50.39 C276.412687,50.4641869 276.871498,50.4943278 277.33,50.48 L277.49,50.48 L277.49,51.26 L271.1,51.26 L271.1,50.48 L271.26,50.48 C271.764068,50.5364532 272.274147,50.4606305 272.74,50.26 C272.93,50.12 273.03,49.83 273,49.36 L273,42.36 C273,41.89 272.93,41.61 272.74,41.46 C272.273166,41.2628431 271.763996,41.1871557 271.26,41.24 L271.1,41.24 L271.1,40.47 L271.25,40.47 L273.1,40.29 C273.666136,40.2280824 274.227423,40.1278526 274.78,39.99 L274.96,39.99 L275.16,42.17 C275.694114,41.625123 276.28785,41.1420835 276.93,40.73" id="Shape" fill="#FFFFFF"></path>
            <path d="M290.06,48.24 C290.132975,48.957098 290.493845,49.61388 291.06,50.06 C291.69142,50.4502664 292.429543,50.6321736 293.17,50.58 C293.533188,50.5774815 293.893916,50.5201695 294.24,50.41 C294.583245,50.307848 294.895873,50.1223327 295.15,49.87 C295.396552,49.6162854 295.530005,49.2736367 295.52,48.92 C295.508385,48.4546208 295.274034,48.023117 294.89,47.76 C294.398672,47.4122292 293.864187,47.1298594 293.3,46.92 C292.66,46.67 292.02,46.39 291.38,46.09 C290.76463,45.8109862 290.208043,45.4173028 289.74,44.93 C289.285743,44.4179523 289.039595,43.754422 289.05,43.07 C289.043494,42.4306528 289.279301,41.8125523 289.71,41.34 C290.137327,40.8804189 290.673976,40.5364135 291.27,40.34 C291.861049,40.1309058 292.483062,40.0227297 293.11,40.02 C293.717969,40.029367 294.32249,40.1133282 294.91,40.27 C295.49,40.4233333 296.053333,40.6 296.6,40.8 L296.7,40.8 L296.7,42.89 L295.61,42.89 L295.61,42.76 C295.506704,42.1918695 295.201212,41.6803471 294.75,41.32 C294.25836,40.9490236 293.655722,40.7551927 293.04,40.77 C292.528321,40.7616205 292.025013,40.9004642 291.59,41.17 C291.168882,41.4364487 290.915459,41.9016882 290.92,42.4 C290.961366,42.8164221 291.19919,43.1880221 291.56,43.4 C292.058445,43.7387711 292.591429,44.0236994 293.15,44.25 C293.79,44.52 294.43,44.81 295.07,45.12 C295.673548,45.4056806 296.224605,45.791083 296.7,46.26 C297.145768,46.7057648 297.397365,47.3095966 297.4,47.94 C297.420306,48.6538463 297.209896,49.3552143 296.8,49.94 C296.413341,50.4604146 295.885948,50.8594287 295.28,51.09 C294.642856,51.3391402 293.964107,51.4647087 293.28,51.46 C292.487679,51.4515268 291.699039,51.3508493 290.93,51.16 C290.231258,51.0106513 289.557674,50.7614252 288.93,50.42 L288.85,48.07 L290,48.07 L290,48.2 L290.06,48.24 Z" id="Shape" fill="#FFFFFF"></path>
            <path d="M285.86,37.25 C285.373413,37.7535693 284.59782,37.8407515 284.011579,37.4577757 C283.425337,37.0747999 283.193563,36.3295308 283.459204,35.6816238 C283.724846,35.0337168 284.413087,34.6656541 285.099445,34.8044438 C285.785802,34.9432334 286.276964,35.5497853 286.27,36.25 C286.269412,36.6241333 286.12222,36.9831358 285.86,37.25" id="Shape" fill="#FFFFFF"></path>
            <path d="M281.92,41.29 L281.76,41.29 L281.76,40.51 L281.91,40.51 C283.243333,40.4166667 284.553333,40.2666667 285.84,40.06 L286.03,40.06 C286.03,40.06 286.03,47.55 286.03,48.68 C285.95012,49.1993471 286.045097,49.7305148 286.3,50.19 C286.703436,50.4771717 287.197186,50.6086015 287.69,50.56 L287.84,50.56 L287.84,51.33 L281.77,51.33 L281.77,50.56 L281.92,50.56 C282.476176,50.6134871 283.03458,50.4835441 283.51,50.19 C283.791185,49.7402473 283.897907,49.2030823 283.81,48.68 L283.81,42.78 C283.81,42.13 283.72,41.78 283.5,41.57 C283.027665,41.3430274 282.500149,41.2562648 281.98,41.32" id="Shape" fill="#FFFFFF"></path>
            <path d="M173.09,87.73 C172.29,87.73 171.77,87.95 171.77,88.46 C171.77,88.97 172.13,89.11 172.61,89.11 C172.908583,89.1211876 173.198458,89.0081778 173.410681,88.7978495 C173.622904,88.5875211 173.738509,88.2986709 173.73,88 L173.73,87.76 L173.09,87.73 Z M171.26,86.24 C171.666896,85.8546966 172.209793,85.6461665 172.77,85.66 C173.89,85.66 174.36,86.19 174.36,87.27 L174.36,88.9 C174.362791,89.1212264 174.382852,89.3418971 174.42,89.56 L173.81,89.56 C173.788356,89.3706164 173.788356,89.1793836 173.81,88.99 C173.538796,89.4149524 173.063874,89.6657112 172.56,89.65 C171.79,89.65 171.15,89.26 171.15,88.52 C171.15,87.27 172.61,87.19 173.54,87.19 L173.78,87.19 L173.78,87.07 C173.78,86.52 173.43,86.24 172.84,86.24 C172.425815,86.2335613 172.02369,86.379465 171.71,86.65 L171.31,86.24 L171.26,86.24 Z" id="Shape" fill="#969696"></path>
            <path d="M175.52,86.65 C175.52,86.3 175.52,86 175.52,85.75 L176.12,85.75 C176.12,85.95 176.12,86.16 176.12,86.37 C176.371335,85.9073949 176.863984,85.6280982 177.39,85.65 C177.79985,85.6216654 178.200545,85.780118 178.480169,86.0811015 C178.759792,86.382085 178.888373,86.7933394 178.83,87.2 L178.83,89.54 L178.2,89.54 L178.2,87.27 C178.2,86.64 177.93,86.27 177.33,86.27 C176.51,86.27 176.15,86.86 176.15,87.73 L176.15,89.58 L175.52,89.58 L175.52,86.65 Z" id="Shape" fill="#969696"></path>
            <polygon id="Shape" fill="#969696" points="182.12 83.81 183.84 83.81 186.28 87.8 186.29 87.8 186.29 83.81 187.56 83.81 187.56 89.55 185.9 89.55 183.4 85.46 183.38 85.46 183.38 89.55 182.12 89.55 182.12 83.81"></polygon>
            <polygon id="Shape" fill="#969696" points="189.78 84.93 188.14 84.93 188.14 83.81 192.69 83.81 192.69 84.93 191.05 84.93 191.05 89.55 189.78 89.55 189.78 84.93"></polygon>
            <polygon id="Shape" fill="#969696" points="194.38 84.93 192.74 84.93 192.74 83.81 197.28 83.81 197.28 84.93 195.65 84.93 195.65 89.55 194.38 89.55 194.38 84.93"></polygon>
            <path d="M201.47,88.38 L202.13,88.38 C203.31,88.38 204.19,87.93 204.19,86.63 C204.19,85.5 203.29,84.98 202.19,84.98 L201.44,84.98 L201.44,88.39 L201.47,88.38 Z M200.2,83.8 L202.1,83.8 C203.95,83.8 205.5,84.59 205.5,86.68 C205.5,88.54 203.98,89.54 202.27,89.54 L200.2,89.54 L200.2,83.81 L200.2,83.8 Z" id="Shape" fill="#969696"></path>
            <path d="M208.68,85.48 L207.98,87.27 L209.38,87.27 L208.68,85.48 Z M208.19,83.81 L209.19,83.81 L211.69,89.55 L210.26,89.55 L209.76,88.33 L207.53,88.33 L207.05,89.55 L205.66,89.55 L208.14,83.81 L208.19,83.81 Z" id="Shape" fill="#969696"></path>
            <polygon id="Shape" fill="#969696" points="212.63 84.93 210.99 84.93 210.99 83.81 215.53 83.81 215.53 84.93 213.89 84.93 213.89 89.55 212.63 89.55 212.63 84.93"></polygon>
            <path d="M217.7,85.48 L217,87.27 L218.4,87.27 L217.7,85.48 Z M217.21,83.81 L218.21,83.81 L220.71,89.55 L219.28,89.55 L218.79,88.33 L216.6,88.33 L216.12,89.55 L214.73,89.55 L217.21,83.81 Z" id="Shape" fill="#969696"></path>
            <path d="M230.86,89.06 C231.435801,89.0886207 231.971025,88.7638227 232.21149,88.2398547 C232.451955,87.7158867 232.349217,87.0983082 231.952067,86.6804114 C231.554917,86.2625146 230.943365,86.1284897 230.407842,86.341986 C229.872318,86.5554823 229.520711,87.0734885 229.52,87.65 C229.494732,88.0189049 229.625356,88.3814945 229.880085,88.6495295 C230.134813,88.9175645 230.490287,89.0664669 230.86,89.06 M230.86,85.66 C231.964569,85.66 232.86,86.5554305 232.86,87.66 C232.86,88.7645695 231.964569,89.66 230.86,89.66 C229.755431,89.66 228.86,88.7645695 228.86,87.66 C228.84017,87.1237335 229.044509,86.6034226 229.423966,86.2239658 C229.803423,85.844509 230.323734,85.6401701 230.86,85.66" id="Shape" fill="#969696"></path>
            <path d="M233.81,86.65 C233.81,86.3 233.81,86 233.81,85.75 L234.41,85.75 C234.41,85.95 234.41,86.16 234.41,86.37 C234.661335,85.9073949 235.153984,85.6280982 235.68,85.65 C236.195266,85.5979669 236.683434,85.8908676 236.88,86.37 C237.107558,85.918554 237.574579,85.6383417 238.08,85.65 C239.17,85.65 239.52,86.26 239.52,87.24 L239.52,89.54 L238.89,89.54 L238.89,87.28 C238.89,86.75 238.7,86.28 237.97,86.28 C237.68262,86.2779224 237.408238,86.3995851 237.216833,86.6139581 C237.025429,86.8283311 236.935506,87.1146903 236.97,87.4 L236.97,89.59 L236.34,89.59 L236.34,87.4 C236.34,86.57 236.13,86.24 235.61,86.24 C234.79,86.24 234.43,86.83 234.43,87.7 L234.43,89.55 L233.8,89.55 L233.8,86.65 L233.81,86.65 Z" id="Shape" fill="#969696"></path>
            <path d="M242.45,89.06 C243.02512,89.0844951 243.557381,88.7569238 243.794651,88.2324564 C244.031922,87.7079891 243.926551,87.0919518 243.528454,86.6761613 C243.130356,86.2603709 242.51948,86.1283283 241.985197,86.3425821 C241.450914,86.556836 241.100521,87.0743588 241.1,87.65 C241.07455,88.0206773 241.2065,88.3849159 241.463453,88.6532895 C241.720407,88.921663 242.078567,89.0693169 242.45,89.06 Z M240.45,85.75 L241.08,85.75 L241.08,86.3 C241.412918,85.8903456 241.912129,85.6517519 242.44,85.65 C243.544569,85.6223858 244.462386,86.4954305 244.49,87.6 C244.517614,88.7045695 243.644569,89.6223858 242.54,89.65 C241.950223,89.6747924 241.392625,89.3807167 241.08,88.88 L241.08,91.4 L240.45,91.4 L240.45,85.76 L240.45,85.75 Z" id="Shape" fill="#969696"></path>
            <path d="M247.14,87.73 C246.34,87.73 245.82,87.95 245.82,88.46 C245.82,88.97 246.18,89.11 246.65,89.11 C246.948583,89.1211876 247.238458,89.0081778 247.450681,88.7978495 C247.662904,88.5875211 247.778509,88.2986709 247.77,88 L247.77,87.76 L247.14,87.73 Z M245.31,86.24 C245.716299,85.8537509 246.259603,85.6450646 246.82,85.66 C247.94,85.66 248.41,86.19 248.41,87.27 L248.41,88.9 C248.413188,89.1212056 248.433246,89.3418458 248.47,89.56 L247.86,89.56 C247.839813,89.3705362 247.839813,89.1794638 247.86,88.99 C247.588796,89.4149524 247.113874,89.6657112 246.61,89.65 C245.84,89.65 245.2,89.26 245.2,88.52 C245.2,87.27 246.66,87.19 247.59,87.19 L247.84,87.19 L247.84,87.07 C247.84,86.52 247.49,86.24 246.9,86.24 C246.486127,86.2354069 246.084634,86.3810812 245.77,86.65 L245.38,86.24 L245.31,86.24 Z" id="Shape" fill="#969696"></path>
            <path d="M249.46,86.65 C249.46,86.3 249.46,86 249.46,85.75 L250.06,85.75 C250.06,85.95 250.06,86.16 250.06,86.37 C250.307958,85.9089937 250.796939,85.6295762 251.32,85.65 C251.72985,85.6216654 252.130545,85.780118 252.410169,86.0811015 C252.689792,86.382085 252.818373,86.7933394 252.76,87.2 L252.76,89.54 L252.13,89.54 L252.13,87.27 C252.13,86.64 251.86,86.27 251.26,86.27 C250.44,86.27 250.08,86.86 250.08,87.73 L250.08,89.58 L249.45,89.58 L249.45,86.65 L249.46,86.65 Z" id="Shape" fill="#969696"></path>
            <path d="M255.31,90.41 C255.06,91.06 254.8,91.49 254.04,91.49 C253.845047,91.4976339 253.650712,91.4635401 253.47,91.39 L253.55,90.84 C253.691344,90.8892845 253.84034,90.9129883 253.99,90.91 C254.41,90.91 254.56,90.66 254.7,90.29 L254.96,89.58 L253.39,85.76 L254.13,85.76 L255.31,88.76 L256.44,85.76 L257.13,85.76 L255.3,90.42 L255.31,90.41 Z" id="Shape" fill="#969696"></path>
            <path d="M227.61,85 C227.270052,84.5558416 226.739227,84.2997093 226.18,84.31 C224.933957,84.3588176 223.96059,85.4036236 224,86.65 C223.964485,87.2540752 224.177096,87.8464706 224.588632,88.2900991 C225.000168,88.7337275 225.574962,88.9901401 226.18,89 C226.827048,89.0160323 227.441851,88.717946 227.83,88.2 L228.34,88.63 C227.831554,89.30236 227.021633,89.6773233 226.18,89.63 C224.523146,89.63 223.18,88.2868542 223.18,86.63 C223.18,84.9731458 224.523146,83.63 226.18,83.63 C226.948908,83.5989157 227.688374,83.9279779 228.18,84.52 L227.59,84.95 L227.61,85 Z" id="Shape" fill="#969696"></path>
        </g>
    </g>
</svg>